Coordinates
version=1
nRows=16
nColumns=40
inDegrees=yes

Units are S.I. units (second, meters, Newtons, ...)
Angles are in degrees.

endheader
time	pelvis_tilt	pelvis_list	pelvis_rotation	pelvis_tx	pelvis_ty	pelvis_tz	hip_flexion_r	hip_adduction_r	hip_rotation_r	knee_angle_r	knee_angle_r_beta	ankle_angle_r	subtalar_angle_r	mtp_angle_r	hip_flexion_l	hip_adduction_l	hip_rotation_l	knee_angle_l	knee_angle_l_beta	ankle_angle_l	subtalar_angle_l	mtp_angle_l	lumbar_extension	lumbar_bending	lumbar_rotation	arm_flex_r	arm_add_r	arm_rot_r	elbow_flex_r	pro_sup_r	wrist_flex_r	wrist_dev_r	arm_flex_l	arm_add_l	arm_rot_l	elbow_flex_l	pro_sup_l	wrist_flex_l	wrist_dev_l
     29.43542857	     -2.13538354	     -0.83496375	      7.81506094	      0.81611563	      0.91372201	      0.50934193	     13.48656324	      1.71687195	    -11.10154227	     30.69972787	     30.69972787	     20.32550435	    -12.68155047	      0.67125089	     33.12186836	    -10.26291889	      1.58073358	     45.85995685	     45.85995685	     12.72244688	    -19.08861796	     16.76589965	    -11.72723548	      6.94997249	      2.91184085	     30.18530124	    -18.59049894	    -10.78383176	     58.90888033	     45.40910092	      0.00000000	      0.00000000	    -13.58852136	    -11.06612936	     20.20991623	     31.87754743	     43.57879242	      0.00000000	      0.00000000
     29.45585714	     -2.28673668	     -0.68781009	      8.55156557	      0.81290076	      0.91484680	      0.50831049	     12.99410833	      1.50451884	    -11.64444957	     29.98513010	     29.98513010	     20.26046309	    -12.67063128	      0.77895960	     33.30011035	     -9.44741267	      2.03130558	     42.90033672	     42.90033672	     12.14123536	    -18.83127885	     16.65683254	    -11.60248578	      6.78068933	      2.95144750	     32.51236858	    -18.45751269	    -10.49116028	     60.57753946	     45.35274871	      0.00000000	      0.00000000	    -13.67983452	    -11.19081073	     20.37792673	     31.76889298	     43.57896177	      0.00000000	      0.00000000
     29.47628571	     -2.60770724	     -0.60202928	      9.25055364	      0.80975070	      0.91601956	      0.50720276	     12.55809151	      1.27938887	    -12.44768653	     29.03585995	     29.03585995	     20.04352320	    -12.24712374	      0.45845978	     33.45426459	     -8.74748978	      2.37754231	     39.68263862	     39.68263862	     10.57756283	    -18.50664215	     13.83411764	    -11.31316634	      6.57757350	      2.93669867	     34.51302696	    -18.87303016	     -8.84305556	     63.64808634	     45.20677045	      0.00000000	      0.00000000	    -13.76884995	    -11.31447342	     20.91911045	     31.84987540	     43.60239657	      0.00000000	      0.00000000
     29.49671429	     -2.79768900	     -0.52689783	      9.88242228	      0.80682061	      0.91778700	      0.50606296	     11.82516726	      1.17808781	    -13.08043405	     27.80258263	     27.80258263	     19.80369335	    -11.87011745	      0.51893597	     33.36310616	     -8.08149252	      2.83771305	     36.55951082	     36.55951082	      9.86539085	    -17.86825474	     13.29771477	    -11.17111029	      6.40290274	      3.08739944	     36.96604012	    -19.02039355	     -8.46699070	     65.30679550	     45.15431860	      0.00000000	      0.00000000	    -13.70532574	    -11.43775768	     21.17551103	     31.79754170	     43.60745729	      0.00000000	      0.00000000
     29.51714286	     -3.07611581	     -0.44688106	     10.41294883	      0.80411436	      0.91958504	      0.50493072	     11.13541623	      1.06301329	    -13.71478341	     26.48625119	     26.48625119	     19.51941366	    -11.33703695	      0.59209903	     33.22315998	     -7.53623405	      3.10259027	     33.50246138	     33.50246138	      9.32696598	    -16.80944590	     12.93009256	    -10.90518263	      6.13113316	      3.26565320	     39.26404622	    -19.16101908	     -8.03858685	     66.85213829	     45.10179989	      0.00000000	      0.00000000	    -13.72851366	    -11.59422015	     21.35452413	     31.74838921	     43.60821743	      0.00000000	      0.00000000
     29.53757143	     -3.60586586	     -0.51472654	     10.86747830	      0.80131589	      0.92065174	      0.50382018	     10.91698751	      1.04863757	    -14.24818766	     25.48231804	     25.48231804	     19.28306238	    -10.97143223	      0.71161936	     33.47892623	     -7.19204654	      3.29172357	     30.90210798	     30.90210798	      9.06866898	    -15.40041226	     12.96099451	    -10.34316244	      5.99027487	      3.64061916	     41.65937886	    -19.47975821	     -7.92203474	     68.00725673	     45.07174275	      0.00000000	      0.00000000	    -13.68988475	    -11.70592869	     21.41197301	     31.77253691	     43.61025709	      0.00000000	      0.00000000
     29.55800000	     -3.58142485	     -0.52585249	     11.25523336	      0.79931839	      0.92259076	      0.50265114	      9.66471066	      1.10005894	    -15.14947244	     23.78337722	     23.78337722	     19.00401001	     -9.62774539	      0.42775914	     32.85445786	     -6.98549935	      3.35043014	     28.24490160	     28.24490160	      8.58221993	    -13.98571889	     11.86638285	    -10.45262094	      5.85164904	      3.48268017	     43.88272281	    -19.45346858	     -6.66872020	     70.18800874	     44.97380904	      0.00000000	      0.00000000	    -13.98229024	    -11.82738345	     21.77382604	     31.68037231	     43.59805664	      0.00000000	      0.00000000
     29.57842857	     -3.86255454	     -0.54481448	     11.49198684	      0.79727107	      0.92364521	      0.50158053	      9.10044932	      1.12689266	    -15.54848500	     22.71653011	     22.71653011	     18.78400570	     -9.07169814	      0.42757815	     32.55220814	     -6.80729077	      3.32669833	     25.96933503	     25.96933503	      8.42323939	    -12.61459112	     11.70588085	    -10.17433905	      5.59388874	      3.79855915	     45.92879392	    -19.61470070	     -6.26592171	     71.32807687	     44.93583958	      0.00000000	      0.00000000	    -14.11980168	    -11.96136214	     21.91678588	     31.67267898	     43.59488657	      0.00000000	      0.00000000
     29.59885714	     -4.01894586	     -0.68710226	     11.67590866	      0.79552892	      0.92417177	      0.50040701	      8.43892540	      1.24842646	    -16.19183703	     21.72525804	     21.72525804	     18.51067409	     -8.11825157	     -0.37644516	     32.23867491	     -6.85034040	      3.18002005	     24.22967677	     24.22967677	      7.97362521	    -11.25631186	     10.14614712	    -10.04798429	      5.51365024	      3.94112805	     47.94967310	    -20.09175462	     -4.67531433	     73.00419281	     44.86551270	      0.00000000	      0.00000000	    -14.50422172	    -12.25767648	     22.57110087	     31.94004555	     43.60161945	      0.00000000	      0.00000000
     29.61928571	     -4.14717816	     -0.81205117	     11.76508127	      0.79397614	      0.92444008	      0.49920245	      7.88744608	      1.40410121	    -16.41585233	     21.00691099	     21.00691099	     18.47240177	     -7.69380966	     -0.37042888	     31.83387420	     -6.86337129	      3.16274734	     22.82187136	     22.82187136	      8.03721794	    -10.22597527	     10.15799290	     -9.91955276	      5.40299980	      4.14216524	     49.86626765	    -19.96016762	     -4.62213377	     73.90983774	     44.84923983	      0.00000000	      0.00000000	    -14.80703530	    -12.40533123	     22.73602208	     31.85053304	     43.59807254	      0.00000000	      0.00000000
     29.63971429	     -4.39628679	     -1.05328354	     11.78730825	      0.79245642	      0.92384929	      0.49794056	      7.75723770	      1.59399259	    -16.52269272	     20.80709424	     20.80709424	     18.57756176	     -7.48292703	     -0.43216736	     31.71416549	     -6.94797820	      3.31026761	     21.98366531	     21.98366531	      8.05048817	     -9.53848704	     10.19358601	     -9.63674873	      5.33420906	      4.47743939	     51.54724455	    -20.01142878	     -4.65718158	     74.57004648	     44.83820425	      0.00000000	      0.00000000	    -15.10599045	    -12.52975918	     22.79142258	     31.75301275	     43.59313674	      0.00000000	      0.00000000
     29.66014286	     -4.31650406	     -1.22047755	     11.77139615	      0.79145544	      0.92346618	      0.49635950	      7.17042710	      1.72327735	    -16.82050577	     20.54005847	     20.54005847	     18.77671545	     -6.77282166	     -0.66565003	     31.07479062	     -7.12023486	      2.98154040	     21.22746654	     21.22746654	      8.08140434	     -8.17505633	      9.58248394	     -9.72946187	      5.32972180	      4.29801136	     53.07117876	    -19.48449905	     -4.09254135	     75.67498099	     44.80388479	      0.00000000	      0.00000000	    -15.67475301	    -12.58476902	     23.13345126	     31.73289725	     43.58310509	      0.00000000	      0.00000000
     29.68057143	     -4.33438839	     -1.40772484	     11.69675393	      0.79048327	      0.92250126	      0.49457484	      6.94842972	      1.81469610	    -16.81185899	     20.76377517	     20.76377517	     19.06281328	     -6.63218196	     -0.85877756	     30.55597521	     -7.20567597	      2.92705113	     20.73827474	     20.73827474	      7.87228010	     -7.42694884	      9.10889864	     -9.71000761	      5.29771185	      4.37370734	     54.31021698	    -19.26869931	     -3.86779707	     76.37494266	     44.79030744	      0.00000000	      0.00000000	    -16.12434570	    -12.66857222	     23.34950466	     31.68281996	     43.58153198	      0.00000000	      0.00000000
     29.70100000	     -4.33365115	     -1.63209033	     11.60728101	      0.78962951	      0.92128144	      0.49244348	      6.80215511	      1.90635130	    -16.74166910	     21.17579533	     21.17579533	     19.38762604	     -6.60738485	     -1.05052192	     30.05730814	     -7.27410798	      2.99593642	     20.49497364	     20.49497364	      7.57535301	     -6.84593709	      8.74903876	     -9.69742871	      5.33780112	      4.46361398	     55.31499745	    -19.07175526	     -3.77532943	     76.96607489	     44.77909818	      0.00000000	      0.00000000	    -16.48524578	    -12.68954793	     23.49112169	     31.58772994	     43.57780123	      0.00000000	      0.00000000
     29.72142857	     -4.33907483	     -1.92877185	     11.53279515	      0.78897187	      0.91994562	      0.48995187	      6.64413490	      2.06355714	    -16.65905287	     21.55239191	     21.55239191	     19.70837374	     -6.62801325	     -1.22928467	     29.61216464	     -7.33974034	      3.24789971	     20.43093057	     20.43093057	      7.24797499	     -6.44740698	      8.69408081	     -9.60267902	      5.47793458	      4.59166779	     55.90169642	    -19.06173018	     -3.80087451	     77.27126378	     44.77441993	      0.00000000	      0.00000000	    -16.88924720	    -12.73095272	     23.54449472	     31.44549629	     43.57040858	      0.00000000	      0.00000000
     29.74185714	     -4.26563061	     -2.12264370	     11.46202135	      0.78832053	      0.91866771	      0.48699011	      6.51039450	      2.04769604	    -16.55633205	     22.21145036	     22.21145036	     20.03854117	     -6.70969347	     -1.43797632	     29.09864171	     -7.30677834	      3.36992882	     20.48959649	     20.48959649	      6.74706466	     -5.94846309	      8.39237416	     -9.71393637	      5.57814200	      4.52508822	     56.50406245	    -18.84158619	     -3.76011297	     77.79280991	     44.76200986	      0.00000000	      0.00000000	    -17.16643002	    -12.63885920	     23.65515929	     31.32651333	     43.56239299	      0.00000000	      0.00000000
